<svg xmlns="http://www.w3.org/2000/svg" xmlns:xlink="http://www.w3.org/1999/xlink" width="300" height="200">
  <defs>
    <path d="M17.43 134.71l4.57-4.57 2.57-2.85 2.86-3.15 2-2.85 1.71-2.86 2-2.57 1.15-3.15 1.14-3.14 1.43-4.57L38 99.57l.86-4.28L40 90.71l.57-5.14.86-5.14L42.57 75l.86-4.29.57-4.57.86-3.71.85-3.72.58-3.71.85-4.57.57-3.72.29 4-.29 4-.57 4.86-.28 5.72-.57 6.85-.58 5.43v4.86l-.28 5.14-.29 3.72-.28 3.14-.29 3.43-.57 5.43-.57 4.57-.86 5.14-.57 3.71-.57 3.43-.57 3.43-.29 4.29L40 131l-.29 3.14-.85-3.43-.57-3.71v-26.57l.28-4.86.57-4 .57-4.28.58-3.43.85-4 .86-3.72.86-3.14 1.43-5.71 1.42-4 1.15-3.72.85-3.14 2-3.72 2.58-3.42 4-2L60 47l3.43.86 2.86 1.71 2.28 2.29 1.72 2.85 1.14 3.43.57 4.57.29 5.72-.58 3.14-2 4.86L67.43 81l-3.14 3.71-3.72 3.43-5.43 3.15-4.57 2.28-4 1.72-3.14 1.14-3.14.86-3.43-.86-.57-3.43 1.42-3.71 2.86-3.15 4.57-1.43h3.15l3.71 2L55.43 89 58 91.86l1.71 3.71 1.15 4 .57 3.43.28 4 .29 3.71.29 3.72.28 4.28.86 3.15 2.86 1.43 3.42-2.29 3.43-4.57 2.29-2.57 3.14-4 3.14-3.15 2.86-2.28 3.43-2 4-1.14 3.43.28-5.72-.86-5.71.86-3.43 1.43-3.71 2-4.29 3.14-2.28 3.15-2 3.42-.29 3.72.57 3.14 1.43 2.86 3.71 2.57 5.15 1.43 3.43.57 3.42.29H92l4-2 2.86-3.15 1.71-3.71 1.14-4.86v-3.43l-1.42-3.43-2.29-2.28-3.43-1.43h-3.71l-.86 3.43 4.86 2h6l4.28-1.43 3.72-1.71 3.71-2.29 3.14-2 3.15-1.14.28 4.57-.57 4.57-2 4.29-1.71 3.42-2 4-2 3.15 2-4.29 1.71-3.14 1.72-2.86 2.28-3.14 2.86-4.29 2.28-2.28 3.72-3.15 3.43-1.71 2.57 2 .28 3.71v3.43l-.85 3.15 1.14-4 3.14-3.43 4-2 4.57-1.43 2.58 2.57-.58 4-.85 3.43-2 3.71-2.57 4-1.72 3.15-1.14 3.42L142 129l3.71-.29 4-1.71 2.86-1.71 2.57-2.58 2.57-3.71 2-2.86L162 113l2.57-3.14 2.29-2.57 2.57-2.29 2.28-2.29 2 2.58-.28 3.14-.86 3.43-1.14 3.71-1.14 4 1.71-3.71 3.14-3.43 2.29-2.29 2.57-2 2.86-2.28 4-2.57 1.43 2.85-.86 3.72-1.72 3.14-2.57 3.43 2-4 4-3.43 2.86-1.71 4-2 3.14-.86 1.15 3.14-.29 3.14-.86 3.43-2 4-1.71 2.86-2 3.14-2 3.15 3.14.57 5.43-.57 3.14-.86 3.72-.57 4-1.15 3.14-.57 3.14-1.43 2.86-1.42 3.71-3.15 4-3.14 2.29-2.86.57-3.71-3.71-1.14-3.43.85-3.14 3.15-1.72 3.14-1.43 4L216 123l-.29 3.43 3.15 1.71h4.85l5.43-.57 3.72-1.14 5.14-2 3.71-3.72 2.86-4.28 1.43-2.86 2.57-4.28 3.14-4.86 3.15-4.86 2.85-5.43 2.58-5.14 1.71-4 1.71-5.14v-3.43l-3.14-.86-4 3.72-2.57 4.57-1.71 2.85-1.15 5.43-.85 4.86v8.29l-.29 5.42v8l1.71 2.86 3.72 1.43" id="a"/>
  </defs>
  <use xlink:href="#a" fill-opacity="0" stroke="#000"/>
</svg>
